<mxfile host="app.diagrams.net" modified="2024-03-09T07:19:22.405Z" agent="Mozilla/5.0 (Windows NT 10.0; Win64; x64) AppleWebKit/537.36 (KHTML, like Gecko) Chrome/121.0.0.0 Safari/537.36" version="24.0.0" etag="qeR85upjTKJSS5Vb-HE9" type="github">
  <diagram name="페이지-1" id="KbqEuBw_J9a0wMbmrrtr">
    <mxGraphModel>
      <root>
        <mxCell id="0" />
        <mxCell id="1" parent="0" />
      </root>
    </mxGraphModel>
  </diagram>
</mxfile>
